<svg width="251" height="250" viewBox="0 0 251 250" fill="none" xmlns="http://www.w3.org/2000/svg">
<path d="M234.3 125.955C231.835 146.855 222.3 171.16 203.23 182.32C174.435 199.195 176.845 225.14 120.635 236.42C112.438 238.104 104.082 238.894 95.715 238.775C91.6197 238.699 87.5332 238.365 83.48 237.775C47.755 232.56 23.715 207.73 14.895 177.75C3.29 138.33 26.465 112.5 41.825 96.97C57.185 81.44 68.44 32.97 123.61 21.47C132.025 19.6641 140.62 18.8353 149.225 19C168.855 19.5 190.265 25.93 205.08 39.38C206.19 40.38 207.273 41.4267 208.33 42.52C228.92 63.665 237.67 97.46 234.3 125.955Z" fill="#BA9DDE"/>
<path opacity="0.7" d="M234.3 125.955C231.835 146.855 222.3 171.16 203.23 182.32C174.435 199.195 176.845 225.14 120.635 236.42C112.438 238.104 104.082 238.894 95.715 238.775C91.6197 238.699 87.5332 238.365 83.48 237.775C47.755 232.56 23.715 207.73 14.895 177.75C3.29 138.33 26.465 112.5 41.825 96.97C57.185 81.44 68.44 32.97 123.61 21.47C132.025 19.6641 140.62 18.8353 149.225 19C168.855 19.5 190.265 25.93 205.08 39.38C206.19 40.38 207.273 41.4267 208.33 42.52C228.92 63.665 237.67 97.46 234.3 125.955Z" fill="white"/>
<path d="M13.22 232.05H238.91" stroke="#2E1A47" stroke-width="0.5" stroke-linecap="round" stroke-linejoin="round"/>
<path d="M189.225 36.7H217.33C217.33 36.7 220.03 28.61 215.175 25.645C210.32 22.68 210.32 26.725 206.545 25.105C203.425 23.77 202.84 21.23 201.97 18.54C201.87 18.235 201.765 17.925 201.655 17.615C201.355 16.7799 200.968 15.9788 200.5 15.225" stroke="#B2B2B2" stroke-width="0.5" stroke-linecap="round" stroke-linejoin="round"/>
<path d="M197.19 11.72C190.145 6.585 178.5 8.5 178.5 19.44C178.5 22.14 172.025 19.44 169.6 22.94C167.175 26.44 169.87 28.605 166.635 29.685C163.4 30.765 163.135 28.065 159.08 28.335C155.025 28.605 155.58 32.38 154.225 33.46C152.87 34.54 152.88 34 149.91 34.27C146.94 34.54 146.41 36.695 146.41 36.695H184.255" stroke="#B2B2B2" stroke-width="0.5" stroke-linecap="round" stroke-linejoin="round"/>
<path d="M204.42 33.75C204.42 33.75 205.89 29.21 202.285 25.87C198.68 22.53 194.935 24.4 193.87 25.87C192.805 27.34 192.8 30.145 191.065 30.41C189.33 30.675 189.725 27.5 186 28.275C182.275 29.05 183.73 32.815 182 33.615C180.27 34.415 180.265 31.48 177.86 32.415C175.455 33.35 175.59 35.085 175.59 35.085" stroke="#B2B2B2" stroke-width="0.5" stroke-linecap="round" stroke-linejoin="round"/>
<path d="M185.235 24.675C184.252 23.9745 183.099 23.5499 181.896 23.4453C180.693 23.3407 179.484 23.5598 178.395 24.08C174.525 25.865 176.31 29.58 174.525 30.475C172.74 31.37 171.85 30.33 169.62 31.37C167.39 32.41 167.535 33.895 167.535 33.895" stroke="#B2B2B2" stroke-width="0.5" stroke-linecap="round" stroke-linejoin="round"/>
<path d="M26.47 50.71C26.022 50.462 25.51 50.354 25 50.4C23.43 50.505 23.64 51.975 23.115 52.4C22.59 52.825 22.615 52.61 21.435 52.715C21.138 52.7105 20.8471 52.7986 20.6024 52.9671C20.3578 53.1355 20.1717 53.376 20.07 53.655H47.675C47.675 53.655 48.355 51.62 47.635 50.22" stroke="#B2B2B2" stroke-width="0.5" stroke-linecap="round" stroke-linejoin="round"/>
<path d="M46.835 49.35C44.945 48.2 44.945 49.77 43.48 49.14C42.265 48.64 42.04 47.64 41.7 46.59C41.66 46.47 41.62 46.35 41.575 46.23C39.985 41.8 32.575 41.495 32.575 46.94C32.575 47.99 30.075 46.94 29.115 48.305C28.155 49.67 29.22 50.505 27.96 50.925" stroke="#B2B2B2" stroke-width="0.5" stroke-linecap="round" stroke-linejoin="round"/>
<path d="M42.65 52.5C42.8036 51.9619 42.8075 51.3922 42.6612 50.8521C42.515 50.312 42.2241 49.822 41.82 49.435C40.42 48.135 38.965 48.865 38.55 49.435C38.135 50.005 38.135 51.095 37.455 51.2C36.775 51.305 36.955 50.06 35.485 50.37C34.015 50.68 34.6 52.135 33.925 52.45C33.25 52.765 33.25 51.615 32.315 51.98C31.38 52.345 31.43 53.02 31.43 53.02" stroke="#B2B2B2" stroke-width="0.5" stroke-linecap="round" stroke-linejoin="round"/>
<path d="M35.19 49C34.8075 48.7277 34.3591 48.5628 33.8914 48.5224C33.4236 48.4819 32.9535 48.5674 32.53 48.77C31.03 49.465 31.72 50.91 31.03 51.27C30.34 51.63 29.99 51.215 29.125 51.62C28.26 52.025 28.315 52.62 28.315 52.62" stroke="#B2B2B2" stroke-width="0.5" stroke-linecap="round" stroke-linejoin="round"/>
<path d="M109.84 22.76C109.396 22.5149 108.89 22.407 108.385 22.45C106.815 22.555 107.025 24.025 106.5 24.45C105.975 24.875 105.975 24.66 104.82 24.76C104.522 24.7559 104.231 24.8447 103.986 25.0141C103.742 25.1835 103.556 25.425 103.455 25.705H131.045C131.045 25.705 131.72 23.67 131.005 22.27" stroke="#B2B2B2" stroke-width="0.5" stroke-linecap="round" stroke-linejoin="round"/>
<path d="M130.205 21.4C128.315 20.245 128.315 21.82 126.845 21.19C125.635 20.69 125.405 19.69 125.07 18.64C125.03 18.52 124.99 18.4 124.945 18.28C123.35 13.85 115.945 13.54 115.945 18.99C115.945 20.035 113.445 18.99 112.48 20.35C111.515 21.71 112.585 22.555 111.33 22.975" stroke="#B2B2B2" stroke-width="0.5" stroke-linecap="round" stroke-linejoin="round"/>
<path d="M126 24.555C126.154 24.0201 126.16 23.4535 126.018 22.9155C125.875 22.3774 125.589 21.8882 125.19 21.5C123.79 20.2 122.335 20.925 121.92 21.5C121.505 22.075 121.5 23.16 120.825 23.265C120.15 23.37 120.325 22.12 118.855 22.435C117.385 22.75 117.97 24.2 117.295 24.51C116.62 24.82 116.62 23.68 115.685 24.045C114.75 24.41 114.8 25.085 114.8 25.085" stroke="#B2B2B2" stroke-width="0.5" stroke-linecap="round" stroke-linejoin="round"/>
<path d="M118.56 21.025C118.178 20.7527 117.729 20.5878 117.261 20.5474C116.794 20.5069 116.324 20.5924 115.9 20.795C114.4 21.485 115.09 22.935 114.4 23.295C113.71 23.655 113.36 23.235 112.49 23.64C111.62 24.045 111.68 24.64 111.68 24.64" stroke="#B2B2B2" stroke-width="0.5" stroke-linecap="round" stroke-linejoin="round"/>
<path d="M148.13 40.535H118.505V200.64H148.13V40.535Z" fill="#2E1A47" stroke="#2E1A47" stroke-width="0.5" stroke-linecap="round" stroke-linejoin="round"/>
<path d="M165.895 40.535H140.885V200.64H165.895V40.535Z" fill="white" stroke="#2E1A47" stroke-width="0.5" stroke-linecap="round" stroke-linejoin="round"/>
<path d="M164.725 42.255H141.82V50.175H164.725V42.255Z" fill="white" stroke="#2E1A47" stroke-width="0.5" stroke-linecap="round" stroke-linejoin="round"/>
<path d="M144.92 43.36V49.115" stroke="#2E1A47" stroke-width="0.5" stroke-linecap="round" stroke-linejoin="round"/>
<path d="M148.32 43.36V49.115" stroke="#2E1A47" stroke-width="0.5" stroke-linecap="round" stroke-linejoin="round"/>
<path d="M151.715 43.36V49.115" stroke="#2E1A47" stroke-width="0.5" stroke-linecap="round" stroke-linejoin="round"/>
<path d="M155.115 43.36V49.115" stroke="#2E1A47" stroke-width="0.5" stroke-linecap="round" stroke-linejoin="round"/>
<path d="M158.515 43.36V49.115" stroke="#2E1A47" stroke-width="0.5" stroke-linecap="round" stroke-linejoin="round"/>
<path d="M161.91 43.36V49.115" stroke="#2E1A47" stroke-width="0.5" stroke-linecap="round" stroke-linejoin="round"/>
<path d="M139.47 42.255H119.835V50.175H139.47V42.255Z" fill="white" stroke="#2E1A47" stroke-width="0.5" stroke-linecap="round" stroke-linejoin="round"/>
<path d="M122.49 43.36V49.115" stroke="#2E1A47" stroke-width="0.5" stroke-linecap="round" stroke-linejoin="round"/>
<path d="M125.405 43.36V49.115" stroke="#2E1A47" stroke-width="0.5" stroke-linecap="round" stroke-linejoin="round"/>
<path d="M128.315 43.36V49.115" stroke="#2E1A47" stroke-width="0.5" stroke-linecap="round" stroke-linejoin="round"/>
<path d="M131.23 43.36V49.115" stroke="#2E1A47" stroke-width="0.5" stroke-linecap="round" stroke-linejoin="round"/>
<path d="M134.145 43.36V49.115" stroke="#2E1A47" stroke-width="0.5" stroke-linecap="round" stroke-linejoin="round"/>
<path d="M137.055 43.36V49.115" stroke="#2E1A47" stroke-width="0.5" stroke-linecap="round" stroke-linejoin="round"/>
<path d="M111.34 61.535H57.285V200.635H111.34V61.535Z" fill="white" stroke="#2E1A47" stroke-width="0.5" stroke-linecap="round" stroke-linejoin="round"/>
<path d="M80.665 66.855H60.595V195.325H80.665V66.855Z" fill="#2E1A47" stroke="#2E1A47" stroke-width="0.5" stroke-linecap="round" stroke-linejoin="round"/>
<path d="M137.51 61.535H83.455V200.635H137.51V61.535Z" fill="white" stroke="#2E1A47" stroke-width="0.5" stroke-linecap="round" stroke-linejoin="round"/>
<path d="M133.055 66.855H87.905V195.325H133.055V66.855Z" fill="white" stroke="#2E1A47" stroke-width="0.5" stroke-linecap="round" stroke-linejoin="round"/>
<path d="M99.245 72.04H89.995V76.88H99.245V72.04Z" fill="white" stroke="#2E1A47" stroke-width="0.5" stroke-linecap="round" stroke-linejoin="round"/>
<path d="M109.82 72.04H100.57V76.88H109.82V72.04Z" fill="white" stroke="#2E1A47" stroke-width="0.5" stroke-linecap="round" stroke-linejoin="round"/>
<path d="M120.39 72.04H111.14V76.88H120.39V72.04Z" fill="white" stroke="#2E1A47" stroke-width="0.5" stroke-linecap="round" stroke-linejoin="round"/>
<path d="M130.965 72.04H121.715V76.88H130.965V72.04Z" fill="white" stroke="#2E1A47" stroke-width="0.5" stroke-linecap="round" stroke-linejoin="round"/>
<path d="M99.245 80.645H89.995V85.485H99.245V80.645Z" fill="white" stroke="#2E1A47" stroke-width="0.5" stroke-linecap="round" stroke-linejoin="round"/>
<path d="M109.82 80.645H100.57V85.485H109.82V80.645Z" fill="white" stroke="#2E1A47" stroke-width="0.5" stroke-linecap="round" stroke-linejoin="round"/>
<path d="M120.39 80.645H111.14V85.485H120.39V80.645Z" fill="white" stroke="#2E1A47" stroke-width="0.5" stroke-linecap="round" stroke-linejoin="round"/>
<path d="M130.965 80.645H121.715V85.485H130.965V80.645Z" fill="white" stroke="#2E1A47" stroke-width="0.5" stroke-linecap="round" stroke-linejoin="round"/>
<path d="M99.245 89.255H89.995V94.095H99.245V89.255Z" fill="white" stroke="#2E1A47" stroke-width="0.5" stroke-linecap="round" stroke-linejoin="round"/>
<path d="M109.82 89.255H100.57V94.095H109.82V89.255Z" fill="white" stroke="#2E1A47" stroke-width="0.5" stroke-linecap="round" stroke-linejoin="round"/>
<path d="M120.39 89.255H111.14V94.095H120.39V89.255Z" fill="white" stroke="#2E1A47" stroke-width="0.5" stroke-linecap="round" stroke-linejoin="round"/>
<path d="M130.965 89.255H121.715V94.095H130.965V89.255Z" fill="white" stroke="#2E1A47" stroke-width="0.5" stroke-linecap="round" stroke-linejoin="round"/>
<path d="M99.245 97.86H89.995V102.7H99.245V97.86Z" fill="white" stroke="#2E1A47" stroke-width="0.5" stroke-linecap="round" stroke-linejoin="round"/>
<path d="M109.82 97.86H100.57V102.7H109.82V97.86Z" fill="white" stroke="#2E1A47" stroke-width="0.5" stroke-linecap="round" stroke-linejoin="round"/>
<path d="M120.39 97.86H111.14V102.7H120.39V97.86Z" fill="white" stroke="#2E1A47" stroke-width="0.5" stroke-linecap="round" stroke-linejoin="round"/>
<path d="M130.965 97.86H121.715V102.7H130.965V97.86Z" fill="white" stroke="#2E1A47" stroke-width="0.5" stroke-linecap="round" stroke-linejoin="round"/>
<path d="M99.245 106.47H89.995V111.31H99.245V106.47Z" fill="white" stroke="#2E1A47" stroke-width="0.5" stroke-linecap="round" stroke-linejoin="round"/>
<path d="M109.82 106.47H100.57V111.31H109.82V106.47Z" fill="white" stroke="#2E1A47" stroke-width="0.5" stroke-linecap="round" stroke-linejoin="round"/>
<path d="M120.39 106.47H111.14V111.31H120.39V106.47Z" fill="white" stroke="#2E1A47" stroke-width="0.5" stroke-linecap="round" stroke-linejoin="round"/>
<path d="M130.965 106.47H121.715V111.31H130.965V106.47Z" fill="white" stroke="#2E1A47" stroke-width="0.5" stroke-linecap="round" stroke-linejoin="round"/>
<path d="M99.245 115.08H89.995V119.92H99.245V115.08Z" fill="white" stroke="#2E1A47" stroke-width="0.5" stroke-linecap="round" stroke-linejoin="round"/>
<path d="M109.82 115.08H100.57V119.92H109.82V115.08Z" fill="white" stroke="#2E1A47" stroke-width="0.5" stroke-linecap="round" stroke-linejoin="round"/>
<path d="M120.39 115.08H111.14V119.92H120.39V115.08Z" fill="white" stroke="#2E1A47" stroke-width="0.5" stroke-linecap="round" stroke-linejoin="round"/>
<path d="M130.965 115.08H121.715V119.92H130.965V115.08Z" fill="white" stroke="#2E1A47" stroke-width="0.5" stroke-linecap="round" stroke-linejoin="round"/>
<path d="M99.245 123.685H89.995V128.525H99.245V123.685Z" fill="white" stroke="#2E1A47" stroke-width="0.5" stroke-linecap="round" stroke-linejoin="round"/>
<path d="M109.82 123.685H100.57V128.525H109.82V123.685Z" fill="white" stroke="#2E1A47" stroke-width="0.5" stroke-linecap="round" stroke-linejoin="round"/>
<path d="M120.39 123.685H111.14V128.525H120.39V123.685Z" fill="white" stroke="#2E1A47" stroke-width="0.5" stroke-linecap="round" stroke-linejoin="round"/>
<path d="M130.965 123.685H121.715V128.525H130.965V123.685Z" fill="white" stroke="#2E1A47" stroke-width="0.5" stroke-linecap="round" stroke-linejoin="round"/>
<path d="M99.245 132.295H89.995V137.135H99.245V132.295Z" fill="white" stroke="#2E1A47" stroke-width="0.5" stroke-linecap="round" stroke-linejoin="round"/>
<path d="M109.82 132.295H100.57V137.135H109.82V132.295Z" fill="white" stroke="#2E1A47" stroke-width="0.5" stroke-linecap="round" stroke-linejoin="round"/>
<path d="M120.39 132.295H111.14V137.135H120.39V132.295Z" fill="white" stroke="#2E1A47" stroke-width="0.5" stroke-linecap="round" stroke-linejoin="round"/>
<path d="M130.965 132.295H121.715V137.135H130.965V132.295Z" fill="white" stroke="#2E1A47" stroke-width="0.5" stroke-linecap="round" stroke-linejoin="round"/>
<path d="M99.245 140.9H89.995V145.74H99.245V140.9Z" fill="white" stroke="#2E1A47" stroke-width="0.5" stroke-linecap="round" stroke-linejoin="round"/>
<path d="M109.82 140.9H100.57V145.74H109.82V140.9Z" fill="white" stroke="#2E1A47" stroke-width="0.5" stroke-linecap="round" stroke-linejoin="round"/>
<path d="M120.39 140.9H111.14V145.74H120.39V140.9Z" fill="white" stroke="#2E1A47" stroke-width="0.5" stroke-linecap="round" stroke-linejoin="round"/>
<path d="M130.965 140.9H121.715V145.74H130.965V140.9Z" fill="white" stroke="#2E1A47" stroke-width="0.5" stroke-linecap="round" stroke-linejoin="round"/>
<path d="M99.245 149.51H89.995V154.35H99.245V149.51Z" fill="white" stroke="#2E1A47" stroke-width="0.5" stroke-linecap="round" stroke-linejoin="round"/>
<path d="M109.82 149.51H100.57V154.35H109.82V149.51Z" fill="white" stroke="#2E1A47" stroke-width="0.5" stroke-linecap="round" stroke-linejoin="round"/>
<path d="M120.39 149.51H111.14V154.35H120.39V149.51Z" fill="white" stroke="#2E1A47" stroke-width="0.5" stroke-linecap="round" stroke-linejoin="round"/>
<path d="M130.965 149.51H121.715V154.35H130.965V149.51Z" fill="white" stroke="#2E1A47" stroke-width="0.5" stroke-linecap="round" stroke-linejoin="round"/>
<path d="M99.245 158.115H89.995V162.955H99.245V158.115Z" fill="white" stroke="#2E1A47" stroke-width="0.5" stroke-linecap="round" stroke-linejoin="round"/>
<path d="M109.82 158.115H100.57V162.955H109.82V158.115Z" fill="white" stroke="#2E1A47" stroke-width="0.5" stroke-linecap="round" stroke-linejoin="round"/>
<path d="M120.39 158.115H111.14V162.955H120.39V158.115Z" fill="white" stroke="#2E1A47" stroke-width="0.5" stroke-linecap="round" stroke-linejoin="round"/>
<path d="M130.965 158.115H121.715V162.955H130.965V158.115Z" fill="white" stroke="#2E1A47" stroke-width="0.5" stroke-linecap="round" stroke-linejoin="round"/>
<path d="M99.245 166.725H89.995V171.565H99.245V166.725Z" fill="white" stroke="#2E1A47" stroke-width="0.5" stroke-linecap="round" stroke-linejoin="round"/>
<path d="M109.82 166.725H100.57V171.565H109.82V166.725Z" fill="white" stroke="#2E1A47" stroke-width="0.5" stroke-linecap="round" stroke-linejoin="round"/>
<path d="M120.39 166.725H111.14V171.565H120.39V166.725Z" fill="white" stroke="#2E1A47" stroke-width="0.5" stroke-linecap="round" stroke-linejoin="round"/>
<path d="M130.965 166.725H121.715V171.565H130.965V166.725Z" fill="white" stroke="#2E1A47" stroke-width="0.5" stroke-linecap="round" stroke-linejoin="round"/>
<path d="M99.245 175.335H89.995V180.175H99.245V175.335Z" fill="white" stroke="#2E1A47" stroke-width="0.5" stroke-linecap="round" stroke-linejoin="round"/>
<path d="M109.82 175.335H100.57V180.175H109.82V175.335Z" fill="white" stroke="#2E1A47" stroke-width="0.5" stroke-linecap="round" stroke-linejoin="round"/>
<path d="M120.39 175.335H111.14V180.175H120.39V175.335Z" fill="white" stroke="#2E1A47" stroke-width="0.5" stroke-linecap="round" stroke-linejoin="round"/>
<path d="M130.965 175.335H121.715V180.175H130.965V175.335Z" fill="white" stroke="#2E1A47" stroke-width="0.5" stroke-linecap="round" stroke-linejoin="round"/>
<path d="M99.245 183.94H89.995V188.78H99.245V183.94Z" fill="white" stroke="#2E1A47" stroke-width="0.5" stroke-linecap="round" stroke-linejoin="round"/>
<path d="M109.82 183.94H100.57V188.78H109.82V183.94Z" fill="white" stroke="#2E1A47" stroke-width="0.5" stroke-linecap="round" stroke-linejoin="round"/>
<path d="M120.39 183.94H111.14V188.78H120.39V183.94Z" fill="white" stroke="#2E1A47" stroke-width="0.5" stroke-linecap="round" stroke-linejoin="round"/>
<path d="M130.965 183.94H121.715V188.78H130.965V183.94Z" fill="white" stroke="#2E1A47" stroke-width="0.5" stroke-linecap="round" stroke-linejoin="round"/>
<path d="M66.975 72.04H63.875V76.88H66.975V72.04Z" fill="white" stroke="#2E1A47" stroke-width="0.5" stroke-linecap="round" stroke-linejoin="round"/>
<path d="M70.52 72.04H67.42V76.88H70.52V72.04Z" fill="white" stroke="#2E1A47" stroke-width="0.5" stroke-linecap="round" stroke-linejoin="round"/>
<path d="M74.06 72.04H70.96V76.88H74.06V72.04Z" fill="white" stroke="#2E1A47" stroke-width="0.5" stroke-linecap="round" stroke-linejoin="round"/>
<path d="M77.6 72.04H74.5V76.88H77.6V72.04Z" fill="white" stroke="#2E1A47" stroke-width="0.5" stroke-linecap="round" stroke-linejoin="round"/>
<path d="M66.975 80.645H63.875V85.485H66.975V80.645Z" fill="white" stroke="#2E1A47" stroke-width="0.5" stroke-linecap="round" stroke-linejoin="round"/>
<path d="M70.52 80.645H67.42V85.485H70.52V80.645Z" fill="white" stroke="#2E1A47" stroke-width="0.5" stroke-linecap="round" stroke-linejoin="round"/>
<path d="M74.06 80.645H70.96V85.485H74.06V80.645Z" fill="white" stroke="#2E1A47" stroke-width="0.5" stroke-linecap="round" stroke-linejoin="round"/>
<path d="M77.6 80.645H74.5V85.485H77.6V80.645Z" fill="white" stroke="#2E1A47" stroke-width="0.5" stroke-linecap="round" stroke-linejoin="round"/>
<path d="M66.975 89.255H63.875V94.095H66.975V89.255Z" fill="white" stroke="#2E1A47" stroke-width="0.5" stroke-linecap="round" stroke-linejoin="round"/>
<path d="M70.52 89.255H67.42V94.095H70.52V89.255Z" fill="white" stroke="#2E1A47" stroke-width="0.5" stroke-linecap="round" stroke-linejoin="round"/>
<path d="M74.06 89.255H70.96V94.095H74.06V89.255Z" fill="white" stroke="#2E1A47" stroke-width="0.5" stroke-linecap="round" stroke-linejoin="round"/>
<path d="M77.6 89.255H74.5V94.095H77.6V89.255Z" fill="white" stroke="#2E1A47" stroke-width="0.5" stroke-linecap="round" stroke-linejoin="round"/>
<path d="M66.975 97.86H63.875V102.7H66.975V97.86Z" fill="white" stroke="#2E1A47" stroke-width="0.5" stroke-linecap="round" stroke-linejoin="round"/>
<path d="M70.52 97.86H67.42V102.7H70.52V97.86Z" fill="white" stroke="#2E1A47" stroke-width="0.5" stroke-linecap="round" stroke-linejoin="round"/>
<path d="M74.06 97.86H70.96V102.7H74.06V97.86Z" fill="white" stroke="#2E1A47" stroke-width="0.5" stroke-linecap="round" stroke-linejoin="round"/>
<path d="M77.6 97.86H74.5V102.7H77.6V97.86Z" fill="white" stroke="#2E1A47" stroke-width="0.5" stroke-linecap="round" stroke-linejoin="round"/>
<path d="M66.975 106.47H63.875V111.31H66.975V106.47Z" fill="white" stroke="#2E1A47" stroke-width="0.5" stroke-linecap="round" stroke-linejoin="round"/>
<path d="M70.52 106.47H67.42V111.31H70.52V106.47Z" fill="white" stroke="#2E1A47" stroke-width="0.5" stroke-linecap="round" stroke-linejoin="round"/>
<path d="M74.06 106.47H70.96V111.31H74.06V106.47Z" fill="white" stroke="#2E1A47" stroke-width="0.5" stroke-linecap="round" stroke-linejoin="round"/>
<path d="M77.6 106.47H74.5V111.31H77.6V106.47Z" fill="white" stroke="#2E1A47" stroke-width="0.5" stroke-linecap="round" stroke-linejoin="round"/>
<path d="M66.975 115.08H63.875V119.92H66.975V115.08Z" fill="white" stroke="#2E1A47" stroke-width="0.5" stroke-linecap="round" stroke-linejoin="round"/>
<path d="M70.52 115.08H67.42V119.92H70.52V115.08Z" fill="white" stroke="#2E1A47" stroke-width="0.5" stroke-linecap="round" stroke-linejoin="round"/>
<path d="M74.06 115.08H70.96V119.92H74.06V115.08Z" fill="white" stroke="#2E1A47" stroke-width="0.5" stroke-linecap="round" stroke-linejoin="round"/>
<path d="M77.6 115.08H74.5V119.92H77.6V115.08Z" fill="white" stroke="#2E1A47" stroke-width="0.5" stroke-linecap="round" stroke-linejoin="round"/>
<path d="M66.975 123.685H63.875V128.525H66.975V123.685Z" fill="white" stroke="#2E1A47" stroke-width="0.5" stroke-linecap="round" stroke-linejoin="round"/>
<path d="M70.52 123.685H67.42V128.525H70.52V123.685Z" fill="white" stroke="#2E1A47" stroke-width="0.5" stroke-linecap="round" stroke-linejoin="round"/>
<path d="M74.06 123.685H70.96V128.525H74.06V123.685Z" fill="white" stroke="#2E1A47" stroke-width="0.5" stroke-linecap="round" stroke-linejoin="round"/>
<path d="M77.6 123.685H74.5V128.525H77.6V123.685Z" fill="white" stroke="#2E1A47" stroke-width="0.5" stroke-linecap="round" stroke-linejoin="round"/>
<path d="M66.975 132.295H63.875V137.135H66.975V132.295Z" fill="white" stroke="#2E1A47" stroke-width="0.5" stroke-linecap="round" stroke-linejoin="round"/>
<path d="M70.52 132.295H67.42V137.135H70.52V132.295Z" fill="white" stroke="#2E1A47" stroke-width="0.5" stroke-linecap="round" stroke-linejoin="round"/>
<path d="M74.06 132.295H70.96V137.135H74.06V132.295Z" fill="white" stroke="#2E1A47" stroke-width="0.5" stroke-linecap="round" stroke-linejoin="round"/>
<path d="M77.6 132.295H74.5V137.135H77.6V132.295Z" fill="white" stroke="#2E1A47" stroke-width="0.5" stroke-linecap="round" stroke-linejoin="round"/>
<path d="M66.975 140.9H63.875V145.74H66.975V140.9Z" fill="white" stroke="#2E1A47" stroke-width="0.5" stroke-linecap="round" stroke-linejoin="round"/>
<path d="M70.52 140.9H67.42V145.74H70.52V140.9Z" fill="white" stroke="#2E1A47" stroke-width="0.5" stroke-linecap="round" stroke-linejoin="round"/>
<path d="M74.06 140.9H70.96V145.74H74.06V140.9Z" fill="white" stroke="#2E1A47" stroke-width="0.5" stroke-linecap="round" stroke-linejoin="round"/>
<path d="M77.6 140.9H74.5V145.74H77.6V140.9Z" fill="white" stroke="#2E1A47" stroke-width="0.5" stroke-linecap="round" stroke-linejoin="round"/>
<path d="M66.975 149.51H63.875V154.35H66.975V149.51Z" fill="white" stroke="#2E1A47" stroke-width="0.5" stroke-linecap="round" stroke-linejoin="round"/>
<path d="M70.52 149.51H67.42V154.35H70.52V149.51Z" fill="white" stroke="#2E1A47" stroke-width="0.5" stroke-linecap="round" stroke-linejoin="round"/>
<path d="M74.06 149.51H70.96V154.35H74.06V149.51Z" fill="white" stroke="#2E1A47" stroke-width="0.5" stroke-linecap="round" stroke-linejoin="round"/>
<path d="M77.6 149.51H74.5V154.35H77.6V149.51Z" fill="white" stroke="#2E1A47" stroke-width="0.5" stroke-linecap="round" stroke-linejoin="round"/>
<path d="M66.975 158.115H63.875V162.955H66.975V158.115Z" fill="white" stroke="#2E1A47" stroke-width="0.5" stroke-linecap="round" stroke-linejoin="round"/>
<path d="M70.52 158.115H67.42V162.955H70.52V158.115Z" fill="white" stroke="#2E1A47" stroke-width="0.5" stroke-linecap="round" stroke-linejoin="round"/>
<path d="M74.06 158.115H70.96V162.955H74.06V158.115Z" fill="white" stroke="#2E1A47" stroke-width="0.5" stroke-linecap="round" stroke-linejoin="round"/>
<path d="M77.6 158.115H74.5V162.955H77.6V158.115Z" fill="white" stroke="#2E1A47" stroke-width="0.5" stroke-linecap="round" stroke-linejoin="round"/>
<path d="M66.975 166.725H63.875V171.565H66.975V166.725Z" fill="white" stroke="#2E1A47" stroke-width="0.5" stroke-linecap="round" stroke-linejoin="round"/>
<path d="M70.52 166.725H67.42V171.565H70.52V166.725Z" fill="white" stroke="#2E1A47" stroke-width="0.5" stroke-linecap="round" stroke-linejoin="round"/>
<path d="M74.06 166.725H70.96V171.565H74.06V166.725Z" fill="white" stroke="#2E1A47" stroke-width="0.5" stroke-linecap="round" stroke-linejoin="round"/>
<path d="M77.6 166.725H74.5V171.565H77.6V166.725Z" fill="white" stroke="#2E1A47" stroke-width="0.5" stroke-linecap="round" stroke-linejoin="round"/>
<path d="M66.975 175.335H63.875V180.175H66.975V175.335Z" fill="white" stroke="#2E1A47" stroke-width="0.5" stroke-linecap="round" stroke-linejoin="round"/>
<path d="M70.52 175.335H67.42V180.175H70.52V175.335Z" fill="white" stroke="#2E1A47" stroke-width="0.5" stroke-linecap="round" stroke-linejoin="round"/>
<path d="M74.06 175.335H70.96V180.175H74.06V175.335Z" fill="white" stroke="#2E1A47" stroke-width="0.5" stroke-linecap="round" stroke-linejoin="round"/>
<path d="M77.6 175.335H74.5V180.175H77.6V175.335Z" fill="white" stroke="#2E1A47" stroke-width="0.5" stroke-linecap="round" stroke-linejoin="round"/>
<path d="M66.975 183.94H63.875V188.78H66.975V183.94Z" fill="white" stroke="#2E1A47" stroke-width="0.5" stroke-linecap="round" stroke-linejoin="round"/>
<path d="M70.52 183.94H67.42V188.78H70.52V183.94Z" fill="white" stroke="#2E1A47" stroke-width="0.5" stroke-linecap="round" stroke-linejoin="round"/>
<path d="M74.06 183.94H70.96V188.78H74.06V183.94Z" fill="white" stroke="#2E1A47" stroke-width="0.5" stroke-linecap="round" stroke-linejoin="round"/>
<path d="M77.6 183.94H74.5V188.78H77.6V183.94Z" fill="white" stroke="#2E1A47" stroke-width="0.5" stroke-linecap="round" stroke-linejoin="round"/>
<path d="M169.975 213.58H37.045V232.295H169.975V213.58Z" fill="#2E1A47" stroke="#2E1A47" stroke-width="0.5" stroke-linecap="round" stroke-linejoin="round"/>
<path d="M101.545 219.76H98.095V232.29H101.545V219.76Z" fill="white" stroke="#2E1A47" stroke-width="0.5" stroke-linecap="round" stroke-linejoin="round"/>
<path d="M85.68 219.76H82.23V232.29H85.68V219.76Z" fill="white" stroke="#2E1A47" stroke-width="0.5" stroke-linecap="round" stroke-linejoin="round"/>
<path d="M69.815 219.76H66.365V232.29H69.815V219.76Z" fill="white" stroke="#2E1A47" stroke-width="0.5" stroke-linecap="round" stroke-linejoin="round"/>
<path d="M53.95 219.76H50.5V232.29H53.95V219.76Z" fill="white" stroke="#2E1A47" stroke-width="0.5" stroke-linecap="round" stroke-linejoin="round"/>
<path d="M38.09 219.76H34.64V232.29H38.09V219.76Z" fill="white" stroke="#2E1A47" stroke-width="0.5" stroke-linecap="round" stroke-linejoin="round"/>
<path d="M124.92 219.76H121.47V232.29H124.92V219.76Z" fill="white" stroke="#2E1A47" stroke-width="0.5" stroke-linecap="round" stroke-linejoin="round"/>
<path d="M148.3 219.76H144.85V232.29H148.3V219.76Z" fill="white" stroke="#2E1A47" stroke-width="0.5" stroke-linecap="round" stroke-linejoin="round"/>
<path d="M171.675 219.76H168.225V232.29H171.675V219.76Z" fill="white" stroke="#2E1A47" stroke-width="0.5" stroke-linecap="round" stroke-linejoin="round"/>
<path d="M172.55 186.665H81.705V221.37H172.55V186.665Z" fill="white" stroke="#2E1A47" stroke-width="0.5" stroke-linecap="round" stroke-linejoin="round"/>
<path d="M96.37 186.665H29.975V221.37H96.37V186.665Z" fill="white" stroke="#2E1A47" stroke-width="0.5" stroke-linecap="round" stroke-linejoin="round"/>
<path d="M93.485 192.74H32.855V213.05H93.485V192.74Z" fill="#2E1A47" stroke="#2E1A47" stroke-width="0.5" stroke-linecap="round" stroke-linejoin="round"/>
<path d="M111.34 192.77H98.735V200.64H111.34V192.77Z" fill="white" stroke="#2E1A47" stroke-width="0.5" stroke-linecap="round" stroke-linejoin="round"/>
<path d="M126.125 192.77H113.52V200.64H126.125V192.77Z" fill="white" stroke="#2E1A47" stroke-width="0.5" stroke-linecap="round" stroke-linejoin="round"/>
<path d="M140.905 192.77H128.3V200.64H140.905V192.77Z" fill="white" stroke="#2E1A47" stroke-width="0.5" stroke-linecap="round" stroke-linejoin="round"/>
<path d="M155.685 192.77H143.08V200.64H155.685V192.77Z" fill="white" stroke="#2E1A47" stroke-width="0.5" stroke-linecap="round" stroke-linejoin="round"/>
<path d="M170.465 192.77H157.86V200.64H170.465V192.77Z" fill="white" stroke="#2E1A47" stroke-width="0.5" stroke-linecap="round" stroke-linejoin="round"/>
<path d="M111.34 205.225H98.735V213.095H111.34V205.225Z" fill="white" stroke="#2E1A47" stroke-width="0.5" stroke-linecap="round" stroke-linejoin="round"/>
<path d="M126.125 205.225H113.52V213.095H126.125V205.225Z" fill="white" stroke="#2E1A47" stroke-width="0.5" stroke-linecap="round" stroke-linejoin="round"/>
<path d="M140.905 205.225H128.3V213.095H140.905V205.225Z" fill="white" stroke="#2E1A47" stroke-width="0.5" stroke-linecap="round" stroke-linejoin="round"/>
<path d="M155.685 205.225H143.08V213.095H155.685V205.225Z" fill="white" stroke="#2E1A47" stroke-width="0.5" stroke-linecap="round" stroke-linejoin="round"/>
<path d="M170.465 205.225H157.86V213.095H170.465V205.225Z" fill="white" stroke="#2E1A47" stroke-width="0.5" stroke-linecap="round" stroke-linejoin="round"/>
<path d="M43.675 192.77H33.51V200.64H43.675V192.77Z" fill="white" stroke="#2E1A47" stroke-width="0.5" stroke-linecap="round" stroke-linejoin="round"/>
<path d="M55.59 192.77H45.425V200.64H55.59V192.77Z" fill="white" stroke="#2E1A47" stroke-width="0.5" stroke-linecap="round" stroke-linejoin="round"/>
<path d="M67.51 192.77H57.345V200.64H67.51V192.77Z" fill="white" stroke="#2E1A47" stroke-width="0.5" stroke-linecap="round" stroke-linejoin="round"/>
<path d="M79.43 192.77H69.265V200.64H79.43V192.77Z" fill="white" stroke="#2E1A47" stroke-width="0.5" stroke-linecap="round" stroke-linejoin="round"/>
<path d="M91.35 192.77H81.185V200.64H91.35V192.77Z" fill="white" stroke="#2E1A47" stroke-width="0.5" stroke-linecap="round" stroke-linejoin="round"/>
<path d="M43.675 205.225H33.51V213.095H43.675V205.225Z" fill="white" stroke="#2E1A47" stroke-width="0.5" stroke-linecap="round" stroke-linejoin="round"/>
<path d="M55.59 205.225H45.425V213.095H55.59V205.225Z" fill="white" stroke="#2E1A47" stroke-width="0.5" stroke-linecap="round" stroke-linejoin="round"/>
<path d="M67.51 205.225H57.345V213.095H67.51V205.225Z" fill="white" stroke="#2E1A47" stroke-width="0.5" stroke-linecap="round" stroke-linejoin="round"/>
<path d="M79.43 205.225H69.265V213.095H79.43V205.225Z" fill="white" stroke="#2E1A47" stroke-width="0.5" stroke-linecap="round" stroke-linejoin="round"/>
<path d="M91.35 205.225H81.185V213.095H91.35V205.225Z" fill="white" stroke="#2E1A47" stroke-width="0.5" stroke-linecap="round" stroke-linejoin="round"/>
<path d="M109.84 181.315H56.42V186.99H109.84V181.315Z" fill="#2E1A47" stroke="#2E1A47" stroke-width="0.5" stroke-linecap="round" stroke-linejoin="round"/>
<path d="M145.23 181.315H91.81V186.99H145.23V181.315Z" fill="white" stroke="#2E1A47" stroke-width="0.5" stroke-linecap="round" stroke-linejoin="round"/>
<path d="M229.255 34.905L200.88 63.28C199.639 64.5205 197.956 65.2172 196.201 65.2168C194.446 65.2163 192.763 64.5187 191.523 63.2775C190.282 62.0363 189.585 60.3531 189.586 58.5982C189.586 56.8434 190.284 55.1605 191.525 53.92L219.895 25.545C221.145 24.3468 222.815 23.6861 224.546 23.7044C226.277 23.7227 227.933 24.4186 229.157 25.6429C230.381 26.8673 231.077 28.5226 231.096 30.254C231.114 31.9854 230.453 33.655 229.255 34.905Z" fill="#2E1A47" stroke="#2E1A47" stroke-width="0.5" stroke-linecap="round" stroke-linejoin="round"/>
<path d="M196.06 64.2L180.275 80C179.551 80.724 178.569 81.1308 177.545 81.1308C176.521 81.1308 175.539 80.724 174.815 80C174.091 79.276 173.684 78.2939 173.684 77.27C173.684 76.2461 174.091 75.264 174.815 74.54L190.6 58.76C191.329 58.0625 192.302 57.6779 193.31 57.6888C194.319 57.6996 195.284 58.1049 195.997 58.8179C196.711 59.5309 197.117 60.4949 197.129 61.5036C197.14 62.5124 196.757 63.4856 196.06 64.215V64.2Z" fill="white" stroke="#2E1A47" stroke-width="0.5" stroke-linecap="round" stroke-linejoin="round"/>
<path d="M134.05 77.255C129.75 81.5565 126.821 87.0365 125.635 93.0022C124.449 98.9678 125.059 105.151 127.387 110.77C129.715 116.39 133.657 121.193 138.714 124.572C143.772 127.951 149.718 129.754 155.8 129.754C161.882 129.754 167.828 127.951 172.886 124.572C177.943 121.193 181.885 116.39 184.213 110.77C186.541 105.151 187.151 98.9678 185.965 93.0022C184.779 87.0365 181.85 81.5565 177.55 77.255C174.694 74.3983 171.303 72.1321 167.571 70.586C163.839 69.0399 159.84 68.2441 155.8 68.2441C151.76 68.2441 147.761 69.0399 144.029 70.586C140.297 72.1321 136.906 74.3983 134.05 77.255ZM173.72 116.925C170.175 120.469 165.659 122.883 160.743 123.861C155.827 124.838 150.731 124.336 146.1 122.418C141.469 120.5 137.51 117.251 134.725 113.083C131.941 108.915 130.454 104.015 130.454 99.0025C130.454 93.9898 131.941 89.0897 134.725 84.9218C137.51 80.7539 141.469 77.5054 146.1 75.587C150.731 73.6686 155.827 73.1666 160.743 74.1443C165.659 75.1221 170.175 77.5357 173.72 81.08C176.074 83.4335 177.941 86.2277 179.215 89.3028C180.489 92.378 181.144 95.6739 181.144 99.0025C181.144 102.331 180.489 105.627 179.215 108.702C177.941 111.777 176.074 114.571 173.72 116.925Z" fill="#2E1A47" stroke="#2E1A47" stroke-width="0.5" stroke-linecap="round" stroke-linejoin="round"/>
<path opacity="0.56" d="M157.195 122.95C171.193 122.95 182.54 111.603 182.54 97.605C182.54 83.6073 171.193 72.26 157.195 72.26C143.197 72.26 131.85 83.6073 131.85 97.605C131.85 111.603 143.197 122.95 157.195 122.95Z" fill="white"/>
<path d="M135.45 75.855C131.15 80.1565 128.221 85.6365 127.035 91.6022C125.849 97.5678 126.459 103.751 128.787 109.37C131.115 114.99 135.057 119.793 140.114 123.172C145.172 126.551 151.118 128.354 157.2 128.354C163.282 128.354 169.228 126.551 174.286 123.172C179.343 119.793 183.285 114.99 185.613 109.37C187.941 103.751 188.551 97.5678 187.365 91.6022C186.179 85.6365 183.25 80.1565 178.95 75.855C176.094 72.9983 172.703 70.7321 168.971 69.186C165.239 67.6399 161.239 66.8441 157.2 66.8441C153.16 66.8441 149.161 67.6399 145.429 69.186C141.697 70.7321 138.306 72.9983 135.45 75.855ZM175.12 115.525C171.575 119.069 167.059 121.483 162.143 122.461C157.227 123.438 152.131 122.936 147.5 121.018C142.869 119.1 138.91 115.851 136.125 111.683C133.341 107.515 131.854 102.615 131.854 97.6025C131.854 92.5898 133.341 87.6897 136.125 83.5218C138.91 79.3539 142.869 76.1054 147.5 74.187C152.131 72.2686 157.227 71.7666 162.143 72.7443C167.059 73.7221 171.575 76.1357 175.12 79.68C177.474 82.0335 179.341 84.8277 180.615 87.9028C181.889 90.978 182.544 94.2739 182.544 97.6025C182.544 100.931 181.889 104.227 180.615 107.302C179.341 110.377 177.474 113.171 175.12 115.525Z" fill="white" stroke="#2E1A47" stroke-width="0.5" stroke-linecap="round" stroke-linejoin="round"/>
<path d="M76.705 64.11V47.055" stroke="#2E1A47" stroke-width="0.5" stroke-linecap="round" stroke-linejoin="round"/>
<path d="M75.285 40.84V43.735L74.13 45.735C74.1293 46.0552 74.1918 46.3724 74.3139 46.6684C74.436 46.9644 74.6152 47.2334 74.8414 47.46C75.0676 47.6867 75.3362 47.8665 75.632 47.9892C75.9277 48.1118 76.2448 48.175 76.565 48.175C77.2073 48.175 77.8237 47.9212 78.2798 47.4689C78.7358 47.0166 78.9947 46.4023 79 45.76V43.76" stroke="#2E1A47" stroke-width="1.5" stroke-linecap="round" stroke-linejoin="round"/>
<path d="M72.77 40.705H77.65V35.285H72.77V40.705Z" fill="white" stroke="#2E1A47" stroke-width="0.5" stroke-linecap="round" stroke-linejoin="round"/>
<path d="M70.97 38.895H79.46V28.01H70.97V38.895Z" fill="white" stroke="#2E1A47" stroke-width="0.5" stroke-linecap="round" stroke-linejoin="round"/>
<path d="M68.44 36.82H81.9V33.48H68.44V36.82Z" fill="white" stroke="#2E1A47" stroke-width="0.5" stroke-linecap="round" stroke-linejoin="round"/>
<path d="M75.21 33.475H77.14L79.865 36.565L79.58 36.82H78.16L75.21 33.475Z" fill="#2E1A47"/>
<path d="M80.84 33.475L81.895 34.67V36.82H81.86L78.915 33.475H80.84Z" fill="#2E1A47"/>
<path d="M71.505 33.475H73.435L76.16 36.565L75.875 36.82H74.455L71.505 33.475Z" fill="#2E1A47"/>
<path d="M68.435 34.195V33.475H69.73L72.455 36.565L72.17 36.82H70.75L68.435 34.195Z" fill="#2E1A47"/>
<path d="M75.405 27.82V21.27" stroke="#2E1A47" stroke-linecap="round" stroke-linejoin="round"/>
<path d="M8.20999 21.105H78.805V17.18L61 9.64H8.20999" stroke="#2E1A47" stroke-linecap="round" stroke-linejoin="round"/>
<path d="M61 21.105V9.64L49.235 21.105V9.64L61 21.105Z" stroke="#2E1A47" stroke-linecap="round" stroke-linejoin="round"/>
<path d="M43.3 15.43L37.48 21.105V9.64L49.25 21.105V9.64L43.3 15.43Z" stroke="#2E1A47" stroke-linecap="round" stroke-linejoin="round"/>
<path d="M37.495 21.105V9.64L25.73 21.105V9.64L37.495 21.105Z" stroke="#2E1A47" stroke-linecap="round" stroke-linejoin="round"/>
<path d="M20.15 15.655L25.745 21.105V9.64L13.975 21.105V9.64L20.15 15.655Z" stroke="#2E1A47" stroke-linecap="round" stroke-linejoin="round"/>
<path d="M76.4 55.79L33.305 88.32" stroke="#2E1A47" stroke-width="0.5" stroke-linecap="round" stroke-linejoin="round"/>
<path d="M76.4 55.79L119.495 88.32" stroke="#2E1A47" stroke-width="0.5" stroke-linecap="round" stroke-linejoin="round"/>
<path d="M118.805 87.84C104.463 83.5961 91.2903 76.1097 80.305 65.96C79.3026 65.0134 77.9762 64.4861 76.5975 64.4861C75.2188 64.4861 73.8924 65.0134 72.89 65.96C61.9059 76.1113 48.7324 83.5979 34.39 87.84C33.2023 88.196 32.1732 88.95 31.4758 89.9752C30.7783 91.0005 30.455 92.2345 30.56 93.47C31.56 105.125 37.595 137.47 73.015 168.385C74.0005 169.245 75.2644 169.719 76.5725 169.719C77.8806 169.719 79.1445 169.245 80.13 168.385C115.55 137.485 121.585 105.125 122.585 93.47C122.695 92.2406 122.379 91.0108 121.691 89.9861C121.003 88.9613 119.984 88.2038 118.805 87.84Z" fill="#BA9DDE" stroke="#2E1A47" stroke-width="0.5" stroke-linecap="round" stroke-linejoin="round"/>
<path d="M110.68 92.685C99.396 89.2253 89.0119 83.324 80.265 75.4C79.2706 74.4911 77.9722 73.987 76.625 73.987C75.2778 73.987 73.9794 74.4911 72.985 75.4C64.2363 83.3216 53.8528 89.2226 42.57 92.685C41.3696 93.0473 40.3324 93.8154 39.6356 94.8578C38.9389 95.9002 38.6258 97.1523 38.75 98.4C39.78 108.585 45.205 134.18 73.04 158.785C74.0293 159.658 75.3032 160.139 76.6225 160.139C77.9418 160.139 79.2157 159.658 80.205 158.785C108.045 134.18 113.465 108.585 114.5 98.4C114.621 97.1528 114.307 95.902 113.611 94.8603C112.914 93.8185 111.879 93.0498 110.68 92.685Z" fill="#2E1A47" stroke="#2E1A47" stroke-width="0.5" stroke-miterlimit="10"/>
<path d="M110.68 92.685C101.518 89.8556 92.9263 85.4329 85.3 79.62C84.4992 79.0092 83.5436 78.6345 82.5411 78.5382C81.5386 78.442 80.5291 78.628 79.6268 79.0753C78.7244 79.5226 77.9651 80.2133 77.4347 81.0694C76.9043 81.9255 76.6238 82.9129 76.625 83.92V149.665C76.6244 150.732 76.9396 151.775 77.5311 152.662C78.1225 153.55 78.9636 154.243 79.9483 154.653C80.9329 155.063 82.017 155.173 83.0638 154.967C84.1106 154.762 85.0731 154.252 85.83 153.5C108.795 130.6 113.54 107.85 114.5 98.395C114.62 97.1486 114.305 95.899 113.609 94.8583C112.913 93.8175 111.878 93.0497 110.68 92.685Z" fill="white" stroke="#2E1A47" stroke-width="0.5" stroke-linecap="round" stroke-linejoin="round"/>
<path d="M85.1755 122.131C89.5143 117.792 89.5143 110.757 85.1755 106.419C80.8368 102.08 73.8023 102.08 69.4636 106.419C65.1249 110.757 65.1249 117.792 69.4636 122.131C73.8023 126.469 80.8368 126.469 85.1755 122.131Z" fill="white" stroke="#2E1A47" stroke-width="1.5" stroke-linecap="round" stroke-linejoin="round"/>
<path d="M78.11 118.935C77.7535 118.932 77.4018 118.853 77.0784 118.703C76.755 118.553 76.4674 118.335 76.235 118.065L71.36 112.375C70.9706 111.868 70.7904 111.23 70.8566 110.594C70.9228 109.958 71.2303 109.371 71.7158 108.955C72.2013 108.539 72.8279 108.324 73.4667 108.356C74.1056 108.388 74.708 108.663 75.15 109.125L78.15 112.66L88.15 101.5C88.3611 101.231 88.6252 101.007 88.926 100.844C89.2269 100.681 89.558 100.581 89.899 100.551C90.2399 100.521 90.5834 100.562 90.9081 100.67C91.2329 100.778 91.5319 100.952 91.7868 101.18C92.0417 101.408 92.2469 101.687 92.3898 101.998C92.5327 102.309 92.6102 102.646 92.6176 102.988C92.6249 103.33 92.5619 103.67 92.4324 103.987C92.303 104.304 92.1098 104.591 91.865 104.83L80 118.105C79.7661 118.366 79.4802 118.574 79.1606 118.717C78.8411 118.86 78.4951 118.934 78.145 118.935H78.11Z" fill="#BA9DDE"/>
<path d="M90.055 101.42C90.3926 101.419 90.7234 101.516 91.0069 101.699C91.2905 101.882 91.5145 102.144 91.6518 102.453C91.7891 102.761 91.8336 103.103 91.7801 103.436C91.7265 103.77 91.577 104.08 91.35 104.33L79.43 117.605C79.2662 117.788 79.0658 117.934 78.8418 118.034C78.6178 118.134 78.3753 118.185 78.13 118.185C77.8817 118.181 77.637 118.125 77.412 118.02C77.1871 117.915 76.987 117.763 76.825 117.575L71.95 111.885C71.7956 111.712 71.6773 111.509 71.6021 111.29C71.5268 111.071 71.496 110.838 71.5116 110.607C71.5272 110.375 71.5889 110.149 71.6929 109.942C71.7969 109.734 71.9413 109.55 72.1175 109.399C72.2937 109.248 72.4983 109.133 72.7192 109.063C72.9401 108.992 73.173 108.965 73.4042 108.986C73.6353 109.006 73.8601 109.072 74.0655 109.18C74.2708 109.288 74.4525 109.436 74.6 109.615L78.18 113.795L88.755 102C88.9183 101.817 89.1187 101.671 89.3428 101.571C89.5669 101.471 89.8096 101.419 90.055 101.42ZM90.055 99.92C89.5998 99.9209 89.1497 100.017 88.7338 100.202C88.3179 100.387 87.9454 100.657 87.64 100.995L78.19 111.495L75.72 108.615C75.4426 108.291 75.1041 108.025 74.7239 107.832C74.3438 107.64 73.9293 107.523 73.5043 107.491C73.0792 107.458 72.6519 107.509 72.2466 107.642C71.8414 107.774 71.4662 107.985 71.1425 108.262C70.8188 108.54 70.5529 108.878 70.36 109.259C70.1671 109.639 70.051 110.053 70.0182 110.478C69.9855 110.903 70.0368 111.331 70.1692 111.736C70.3016 112.141 70.5126 112.516 70.79 112.84L75.67 118.525C75.9698 118.876 76.3413 119.159 76.7596 119.355C77.1778 119.551 77.6332 119.655 78.095 119.66H78.13C78.5854 119.66 79.0358 119.565 79.4519 119.38C79.868 119.194 80.2404 118.924 80.545 118.585L92.465 105.31C92.8843 104.844 93.1595 104.266 93.2575 103.647C93.3554 103.028 93.2719 102.393 93.0169 101.821C92.762 101.248 92.3466 100.761 91.821 100.419C91.2953 100.078 90.682 99.8955 90.055 99.895V99.92Z" fill="#2E1A47"/>
<path d="M200 227C200 227 198.27 229.635 196.86 230.745C195.45 231.855 192.14 233.455 191.215 234.2C190.29 234.945 190.715 235.61 191.02 235.93C191.325 236.25 195.595 236.485 197.915 236.49C200.235 236.495 204.415 235.49 204.415 235.49C204.415 235.49 206.265 235.785 206.73 235.55C207.195 235.315 207.5 234.79 207.57 233.97C207.64 233.15 207.38 228.52 207.38 228.52L200 227Z" fill="white" stroke="#2E1A47" stroke-width="0.5" stroke-linecap="round" stroke-linejoin="round"/>
<path d="M204.96 234.265C203.155 234.555 202.8 234.965 199.315 235.485C196.44 235.915 192.19 235.385 190.64 235.11C190.645 235.263 190.68 235.413 190.744 235.552C190.807 235.691 190.898 235.816 191.01 235.92C191.33 236.24 195.585 236.475 197.905 236.48C200.225 236.485 204.405 235.48 204.405 235.48C204.405 235.48 206.255 235.775 206.72 235.54C206.984 235.376 207.2 235.145 207.347 234.872C207.495 234.598 207.568 234.291 207.56 233.98C206.689 234.025 205.82 234.12 204.96 234.265Z" fill="#2E1A47" stroke="#2E1A47" stroke-width="0.5" stroke-linecap="round" stroke-linejoin="round"/>
<path d="M201.5 228.935C201.5 228.935 199.5 228.045 198.155 229.545" stroke="#2E1A47" stroke-linecap="round" stroke-linejoin="round"/>
<path d="M199.215 228.18C199.215 228.18 200.75 229.385 200.545 230.68" stroke="#2E1A47" stroke-linecap="round" stroke-linejoin="round"/>
<path d="M200 230.325C200 230.325 198.425 229.595 197.355 230.825" stroke="#2E1A47" stroke-linecap="round" stroke-linejoin="round"/>
<path d="M198.205 229.71C198.205 229.71 199.415 230.71 199.245 231.76" stroke="#2E1A47" stroke-linecap="round" stroke-linejoin="round"/>
<path d="M198.84 231.735C198.84 231.735 197.385 231.05 195.095 231.86" stroke="#2E1A47" stroke-linecap="round" stroke-linejoin="round"/>
<path d="M197 231.11C197.109 231.221 197.192 231.355 197.241 231.502C197.291 231.649 197.307 231.806 197.287 231.96C197.267 232.114 197.212 232.262 197.127 232.392C197.042 232.522 196.928 232.63 196.795 232.71" stroke="#2E1A47" stroke-linecap="round" stroke-linejoin="round"/>
<path d="M211.395 229.5C211.395 229.5 210.54 232.56 210.23 233C209.92 233.44 207.885 236 207.87 236.895C207.855 237.79 208.505 238.48 210.125 238.85C211.745 239.22 214.275 239.35 216.28 238.435C218.285 237.52 219.195 237.22 219.705 235.82C220.215 234.42 219.875 229.725 219.875 229.725C219.875 229.725 213.6 225.1 211.395 229.5Z" fill="white" stroke="#2E1A47" stroke-width="0.5" stroke-linecap="round" stroke-linejoin="round"/>
<path d="M219.705 235.805C219.906 235.053 220.005 234.278 220 233.5C219.58 234.167 219.109 234.801 218.59 235.395C217.59 236.49 215.895 237.705 212.64 237.945C210.96 238.094 209.288 237.581 207.98 236.515C207.935 236.639 207.906 236.768 207.895 236.9C207.895 237.815 208.53 238.485 210.15 238.855C211.77 239.225 214.3 239.355 216.305 238.44C218.31 237.525 219.195 237.205 219.705 235.805Z" fill="#2E1A47" stroke="#2E1A47" stroke-width="0.5" stroke-linecap="round" stroke-linejoin="round"/>
<path d="M215.81 228.46C215.81 228.46 213.065 228.325 212.205 229.96" stroke="#2E1A47" stroke-linecap="round" stroke-linejoin="round"/>
<path d="M212.805 228.5C212.805 228.5 215.16 229 215.525 230.12" stroke="#2E1A47" stroke-linecap="round" stroke-linejoin="round"/>
<path d="M215.265 230.46C215.265 230.46 212.52 230.33 211.66 231.96" stroke="#2E1A47" stroke-linecap="round" stroke-linejoin="round"/>
<path d="M212.26 230.5C212.26 230.5 214.615 231 214.975 232.12" stroke="#2E1A47" stroke-linecap="round" stroke-linejoin="round"/>
<path d="M214.715 232.46C214.715 232.46 211.97 232.33 211.11 233.96" stroke="#2E1A47" stroke-linecap="round" stroke-linejoin="round"/>
<path d="M211.715 232.5C211.715 232.5 214.065 233 214.43 234.12" stroke="#2E1A47" stroke-linecap="round" stroke-linejoin="round"/>
<path d="M195 169.43C195 169.43 196.055 185.335 196.5 189.8C196.945 194.265 198.05 204.56 198.14 204.835C198.23 205.11 198.505 208.75 198.505 208.75C198.505 208.75 198.23 210.21 198.595 213.4C198.96 216.59 200.055 223.24 200.055 223.24C200.055 223.24 199.14 223.42 199.235 224.15C199.33 224.88 199.69 226.885 199.69 226.885C199.69 226.885 203.15 228.065 204.155 228.16C205.16 228.255 207.155 228.16 207.155 228.16C207.155 228.16 207.975 226.79 207.885 226.065C207.696 225.169 207.452 224.286 207.155 223.42L207.61 218.045L208.34 196.09C208.34 196.09 211.165 217.5 211.62 219.045C212.075 220.59 212.53 223.045 212.53 223.045C212.53 223.045 211.62 223.775 211.62 224.23C211.62 224.685 211.8 227.875 211.8 227.875C211.8 227.875 213.625 226.415 215.355 226.69C217.085 226.965 219.91 228.97 219.91 228.97C220.025 228.046 220.209 227.132 220.46 226.235C220.82 225.05 220.095 222.045 219.91 221.235C219.698 220.308 219.667 219.349 219.82 218.41C220 217.59 220.095 215.04 220.185 214.22C220.275 213.4 220.095 192.99 220.095 192.99L221.955 169.615L195.455 168.795L195 169.43Z" fill="#2E1A47" stroke="#2E1A47" stroke-width="0.5" stroke-linecap="round" stroke-linejoin="round"/>
<path d="M199.085 135.045C199.085 135.045 195.69 141.39 194.805 143.21C193.92 145.03 192.89 147.085 192.89 147.085C189.66 142.41 186.455 137.755 182.955 133.28L182.175 132.37C182.175 132.37 177.805 130.72 177.395 131.12C176.985 131.52 176 137.68 176.96 138.62C177.92 139.56 181.96 140.12 181.96 140.12L182.725 140.915L182.62 141.01C182.62 141.01 188.735 154.58 189.72 155.51C190.705 156.44 191.865 158.075 193.995 158.18C195.215 158.235 199.345 149.505 199.345 149.505L199.085 135.045Z" fill="white" stroke="#2E1A47" stroke-width="0.5" stroke-linecap="round" stroke-linejoin="round"/>
<path d="M198.675 134.955L193.435 144.12L197.575 154L200.135 148.765C200.135 148.765 201.6 134.385 200.5 134.265C200.164 134.237 199.825 134.285 199.51 134.404C199.194 134.523 198.909 134.712 198.675 134.955Z" fill="white" stroke="#2E1A47" stroke-width="0.5" stroke-linecap="round" stroke-linejoin="round"/>
<path d="M192.095 145.335C192.095 145.335 196.235 156.425 196.725 156.425C197.215 156.425 198.675 154.23 198.55 153.135C198.425 152.04 195.14 143.385 194.05 143.265C192.96 143.145 192.58 144.24 192.095 145.335Z" fill="white" stroke="#2E1A47" stroke-width="0.5" stroke-linecap="round" stroke-linejoin="round"/>
<path d="M184.58 135.29C184.58 135.29 183.12 132.76 182.96 131.73C182.705 130.13 184.54 129.135 183.695 128.755C182.85 128.375 181.28 129.475 181.135 130.62C181.048 131.342 181.077 132.072 181.22 132.785C181.22 132.785 180.4 134.285 180.61 135.405C180.82 136.525 181.385 137.75 181.815 137.905" fill="white"/>
<path d="M184.58 135.29C184.58 135.29 183.12 132.76 182.96 131.73C182.705 130.13 184.54 129.135 183.695 128.755C182.85 128.375 181.28 129.475 181.135 130.62C181.048 131.342 181.077 132.072 181.22 132.785C181.22 132.785 180.4 134.285 180.61 135.405C180.82 136.525 181.385 137.75 181.815 137.905" stroke="#2E1A47" stroke-width="0.5" stroke-linecap="round" stroke-linejoin="round"/>
<path d="M176.75 129.855C176.61 129.82 176.465 129.813 176.323 129.836C176.18 129.859 176.044 129.911 175.922 129.988C175.801 130.065 175.696 130.166 175.615 130.285C175.534 130.404 175.478 130.539 175.45 130.68C175.394 130.803 175.363 130.937 175.36 131.072C175.357 131.208 175.381 131.343 175.431 131.468C175.482 131.594 175.558 131.708 175.654 131.804C175.75 131.9 175.864 131.975 175.99 132.025C176.49 132.27 179.285 133.87 179.565 133.1C179.845 132.33 180.115 131.64 179.53 131.295C178.945 130.95 176.75 129.855 176.75 129.855Z" fill="white" stroke="#2E1A47" stroke-width="0.5" stroke-linecap="round" stroke-linejoin="round"/>
<path d="M176.4 132.16C176.261 132.124 176.115 132.117 175.973 132.139C175.831 132.161 175.695 132.212 175.573 132.289C175.451 132.366 175.346 132.467 175.265 132.586C175.184 132.704 175.127 132.839 175.1 132.98C175.043 133.104 175.011 133.237 175.008 133.374C175.004 133.51 175.029 133.645 175.079 133.771C175.13 133.898 175.205 134.013 175.302 134.109C175.398 134.205 175.513 134.28 175.64 134.33C176.14 134.575 178.93 136.175 179.215 135.4C179.5 134.625 179.76 133.945 179.18 133.6C178.6 133.255 176.4 132.16 176.4 132.16Z" fill="white" stroke="#2E1A47" stroke-width="0.5" stroke-linecap="round" stroke-linejoin="round"/>
<path d="M176.165 134.525C176.046 134.495 175.923 134.489 175.802 134.508C175.681 134.528 175.565 134.571 175.462 134.637C175.358 134.703 175.269 134.788 175.2 134.89C175.131 134.991 175.083 135.105 175.06 135.225C175.011 135.33 174.984 135.444 174.981 135.559C174.978 135.675 174.999 135.79 175.042 135.897C175.085 136.005 175.15 136.102 175.232 136.183C175.314 136.265 175.412 136.328 175.52 136.37C175.95 136.58 178.32 137.94 178.56 137.285C178.8 136.63 179.025 136.045 178.53 135.75C178.035 135.455 176.165 134.525 176.165 134.525Z" fill="white" stroke="#2E1A47" stroke-width="0.5" stroke-linecap="round" stroke-linejoin="round"/>
<path d="M176.26 136.63C176.153 136.6 176.041 136.593 175.932 136.609C175.822 136.625 175.717 136.664 175.623 136.723C175.529 136.781 175.448 136.859 175.385 136.951C175.323 137.042 175.28 137.146 175.26 137.255C175.22 137.347 175.198 137.446 175.197 137.547C175.196 137.647 175.215 137.747 175.252 137.84C175.29 137.933 175.346 138.018 175.417 138.089C175.488 138.16 175.572 138.217 175.665 138.255C176.05 138.44 178.165 139.655 178.375 139.07C178.585 138.485 178.79 137.965 178.375 137.7C177.96 137.435 176.26 136.63 176.26 136.63Z" fill="white" stroke="#2E1A47" stroke-width="0.5" stroke-linecap="round" stroke-linejoin="round"/>
<path d="M204.7 130.22C204.7 130.22 199.07 132.8 198.7 133.72C198.33 134.64 196.435 153.27 195.34 160.72C194.245 168.17 194.715 170.15 194.715 170.15C194.715 170.15 195.885 172.575 207.385 172.18C218.885 171.785 222.945 170.07 223.105 169.055C223.265 168.04 223.415 169.325 223.415 168.62C223.415 167.915 224.275 134.68 223.415 132.645C222.555 130.61 217.705 127.25 216.3 127.095C214.895 126.94 204.7 130.22 204.7 130.22Z" fill="#BA9DDE" stroke="#2E1A47" stroke-width="0.5" stroke-linecap="round" stroke-linejoin="round"/>
<path d="M195.33 161.845V161.935C195.14 163.23 195.005 164.395 194.91 165.46C200.683 166.626 206.578 167.073 212.46 166.79C218.46 166.425 221.79 166.205 223.485 166.095C223.51 165.07 223.535 163.88 223.56 162.565C219.55 163 203.9 164.355 195.33 161.845Z" fill="white" stroke="#2E1A47" stroke-width="0.5" stroke-linecap="round" stroke-linejoin="round"/>
<path d="M214.18 145.755C214.44 144.305 215.74 137.225 217.425 132.69L220.17 134.505L222.9 134.575C222.9 134.575 216.775 129.18 215.045 128.715C214.697 128.664 214.343 128.664 213.995 128.715C210.555 129.56 204.7 131.45 204.7 131.45C204.7 131.45 199.07 134.03 198.7 134.95C198.577 135.466 198.485 135.988 198.425 136.515L199.835 135.715L198.135 144.61C197.86 144.545 197.59 144.475 197.33 144.4L196.915 147.995C202.59 149.118 208.381 149.544 214.16 149.265C218.795 148.98 221.84 148.765 223.765 148.66C223.765 147.485 223.765 146.32 223.765 145.185C221.57 145.39 218.075 145.655 214.18 145.755ZM199.74 144.955L201.82 134.6C204.42 133.165 207.415 131.6 208.72 131.18C210.325 130.685 211.974 130.35 213.645 130.18L215.09 131.14C214.925 131.565 211.84 139.56 211.02 145.76L211.44 145.795C207.523 145.859 203.608 145.578 199.74 144.955Z" fill="white" stroke="#2E1A47" stroke-width="0.5" stroke-linecap="round" stroke-linejoin="round"/>
<path d="M199.44 168.08C199.48 168.79 199.54 169.48 199.615 170.15" stroke="#2E1A47" stroke-width="0.5" stroke-miterlimit="10"/>
<path d="M201.21 152.635C200.4 157.36 199.275 161.005 199.38 166.52" stroke="#2E1A47" stroke-width="0.5" stroke-miterlimit="10"/>
<path d="M202.59 145.59C202.59 145.59 202.005 148.03 201.35 151.645" stroke="#2E1A47" stroke-width="0.5" stroke-miterlimit="10"/>
<path d="M196.35 169.705C196.35 169.705 191.525 168.975 191.25 169.52C190.975 170.065 191.25 177.52 191.705 177.995C192.16 178.47 195.26 179.09 196.17 178.54C197.08 177.99 197.625 177.63 197.81 177.175C197.995 176.72 197.99 170.98 197.625 170.25C197.496 170.038 197.303 169.871 197.075 169.774C196.846 169.676 196.593 169.652 196.35 169.705Z" fill="#2E1A47" stroke="#2E1A47" stroke-width="0.5" stroke-linecap="round" stroke-linejoin="round"/>
<path d="M202.09 170.615C202.09 170.615 201.365 177.995 202.545 178.45C203.872 178.856 205.257 179.042 206.645 179C207.105 178.905 208.745 178.635 209.015 177.905C209.285 177.175 209.29 171.435 209.105 170.905C208.92 170.375 202.545 169.885 202.09 170.615Z" fill="#2E1A47" stroke="#2E1A47" stroke-width="0.5" stroke-linecap="round" stroke-linejoin="round"/>
<path d="M213.57 171.435C213.57 171.435 213.935 179.725 214.12 180.09C214.305 180.455 217.765 182.735 218.4 182.64C219.035 182.545 224.14 182.005 224.4 181C224.66 179.995 225.31 171.89 224.765 171C224.22 170.11 223.03 169.725 221.94 169.635C220.85 169.545 214.5 170.435 214.5 170.435C214.247 170.453 214.01 170.566 213.838 170.752C213.665 170.937 213.569 171.181 213.57 171.435Z" fill="#2E1A47" stroke="#2E1A47" stroke-width="0.5" stroke-linecap="round" stroke-linejoin="round"/>
<path d="M207.045 128.15L204.7 130.22L204.62 132.61L202.745 144.34C202.745 144.34 213.85 129.87 214 129.635C214.725 129.139 215.483 128.695 216.27 128.305L215.565 125.41L214.39 125.725L207.045 128.15Z" fill="white" stroke="#2E1A47" stroke-width="0.5" stroke-linecap="round" stroke-linejoin="round"/>
<path d="M204.7 130.22L206.27 133.325L206.515 130.95L207.86 134.245L212.375 130.565" stroke="#2E1A47" stroke-width="0.5" stroke-linecap="round" stroke-linejoin="round"/>
<path d="M205.5 111.265C205.5 111.265 204.5 113.2 204.435 113.48C204.414 113.858 204.414 114.237 204.435 114.615C204.435 114.615 201.885 117.145 201.97 117.33C202.055 117.515 203.035 117.83 203.035 117.83C203.035 117.83 202.1 124.285 202.645 124.435C203.19 124.585 207.115 124.24 207.115 124.24L206.5 130.95L214.88 126.115L215.83 121.66C215.83 121.66 218.535 119.215 218.78 117.77C219.025 116.325 218.855 116.015 218.855 116.015L205.5 111.265Z" fill="white" stroke="#2E1A47" stroke-width="0.5" stroke-linecap="round" stroke-linejoin="round"/>
<path d="M218.87 116L210.305 113L210.265 113.65L209.41 116.65C209.41 116.65 212.01 115.445 212.495 115.3C212.98 115.155 213.595 116.855 212.935 117.715C212.275 118.575 210.395 119.56 210.395 119.56C210.395 119.56 211.895 121.76 213.765 122.195C214.402 122.343 215.057 122.401 215.71 122.365L215.845 121.695C215.845 121.695 218.55 119.25 218.795 117.805C219.04 116.36 218.87 116 218.87 116Z" fill="#2E1A47" stroke="#2E1A47" stroke-width="0.5" stroke-linecap="round" stroke-linejoin="round"/>
<path d="M205 113.405C205.293 113.293 205.615 113.288 205.911 113.392C206.207 113.495 206.456 113.7 206.615 113.97" stroke="#2E1A47" stroke-width="0.5" stroke-linecap="round" stroke-linejoin="round"/>
<path d="M205.57 115.045C205.505 115.415 205.33 115.69 205.18 115.665C205.03 115.64 204.95 115.32 205.015 114.95C205.08 114.58 205.255 114.305 205.405 114.335C205.555 114.365 205.63 114.68 205.57 115.045Z" fill="#2E1A47"/>
<path d="M202.55 124.31L208.985 124.075L207 125.955L207.07 124.26L202.55 124.31Z" fill="#2E1A47" stroke="#2E1A47" stroke-width="0.5" stroke-linecap="round" stroke-linejoin="round"/>
<path d="M213.625 115.97L215.71 122.33L217.41 121.185L215.43 116.11L213.625 115.97Z" fill="white" stroke="#2E1A47" stroke-width="0.5" stroke-linecap="round" stroke-linejoin="round"/>
<path d="M204.615 109.75C204.615 109.75 200.615 109.59 201.075 109.835C201.535 110.08 220.64 119.75 220.64 119.75C220.565 119.086 220.54 118.418 220.565 117.75C220.65 117.25 221.995 114.25 222.225 110.975C222.455 107.7 215.945 104.72 212.61 103.815C209.275 102.91 207.31 104.235 206.68 105.955C206.126 107.289 205.434 108.56 204.615 109.75Z" fill="#BA9DDE" stroke="#2E1A47" stroke-width="0.5" stroke-linecap="round" stroke-linejoin="round"/>
<path d="M209.925 112.4L206.585 110.5C206.585 110.5 209.455 106.15 209.485 105.57C209.501 105.208 209.538 104.848 209.595 104.49C209.595 104.49 209.825 103.575 212.9 104.49" stroke="#2E1A47" stroke-width="0.5" stroke-linecap="round" stroke-linejoin="round"/>
<path d="M202.745 118.225C203.397 118.042 204.084 118.023 204.745 118.17C205.53 118.455 205.705 119.03 206.025 118.97C206.345 118.91 208.27 118.47 206.245 119.825C205.485 120.325 204.805 120.16 204.21 120.09C203.757 120.022 203.31 119.915 202.875 119.77C202.659 119.578 202.526 119.311 202.501 119.023C202.477 118.736 202.564 118.45 202.745 118.225Z" fill="#2E1A47" stroke="#2E1A47" stroke-width="0.5" stroke-linecap="round" stroke-linejoin="round"/>
<path d="M217.5 168.85C217.014 169.377 216.443 169.819 215.81 170.155C215.838 170.295 215.823 170.44 215.768 170.572C215.712 170.704 215.619 170.816 215.5 170.895" stroke="#2E1A47" stroke-width="0.5" stroke-linecap="round" stroke-linejoin="round"/>
<path d="M234.8 149.425C233.11 145.205 230.42 141.47 228.165 137.525C227.491 136.216 226.689 134.976 225.77 133.825C224.836 132.667 223.508 131.895 222.04 131.655H221.965C221.432 131.604 220.894 131.666 220.387 131.839C219.881 132.011 219.416 132.289 219.025 132.655C218.264 133.403 217.805 134.405 217.735 135.47C217.372 138.009 217.838 140.598 219.065 142.85C220.345 145.17 222.335 146.96 224.195 148.85C224.74 149.405 225.27 149.965 225.77 150.555C222.517 154.685 219.26 158.817 216 162.95C215.798 163.187 215.629 163.451 215.5 163.735H215.37L212.61 165.325C212.61 165.325 210.57 166.71 210.535 167.4C210.46 168.865 211.005 169.475 211.45 170.18C211.999 170.767 212.611 171.292 213.275 171.745C213.715 171.98 214.775 172.395 215.49 171.8C216.205 171.205 218.335 170.615 218.455 169.665C218.575 168.715 217.505 168.835 217.505 168.835C218.206 168.253 218.653 167.421 218.75 166.515C219.064 166.45 219.369 166.349 219.66 166.215C220.587 165.737 221.445 165.135 222.21 164.425C225.825 161.425 229.71 158.715 233.38 155.775C234.113 155.27 234.722 154.607 235.165 153.835C235.81 152.5 235.37 150.84 234.8 149.425Z" fill="white" stroke="#2E1A47" stroke-width="0.5" stroke-linecap="round" stroke-linejoin="round"/>
<path d="M234.8 149.425C232.987 148.401 230.967 147.795 228.89 147.65C227.245 147.613 225.621 148.028 224.195 148.85C222.335 146.95 220.345 145.16 219.065 142.85C217.838 140.598 217.372 138.009 217.735 135.47C217.805 134.405 218.264 133.403 219.025 132.655C219.416 132.289 219.881 132.011 220.387 131.839C220.894 131.666 221.432 131.604 221.965 131.655H222.04C223.508 131.895 224.836 132.667 225.77 133.825C226.689 134.976 227.491 136.216 228.165 137.525C230.42 141.47 233.11 145.205 234.8 149.425Z" fill="white" stroke="#2E1A47" stroke-width="0.5" stroke-linecap="round" stroke-linejoin="round"/>
<path d="M224.38 152.04C224.38 152.04 227.305 149.845 229.745 150.09C232.185 150.335 234.86 152.405 235.245 152.28C235.63 152.155 236.71 151.065 236.345 149.845C236.069 148.72 235.701 147.62 235.245 146.555C234.635 145.215 232.08 144.485 229.64 145.095C227.2 145.705 223.305 148.505 223.43 149.355C223.658 150.279 223.976 151.178 224.38 152.04Z" fill="white" stroke="#2E1A47" stroke-width="0.5" stroke-linecap="round" stroke-linejoin="round"/>
</svg>
